<?xml version="1.0" encoding="UTF-8"?>
<!-- Generator: Adobe Illustrator 16.0.0, SVG Export Plug-In . SVG Version: 6.00 Build 0)  -->
<!DOCTYPE svg PUBLIC "-//W3C//DTD SVG 1.1//EN" "http://www.w3.org/Graphics/SVG/1.1/DTD/svg11.dtd">
<svg version="1.1" id="Layer_1" xmlns="http://www.w3.org/2000/svg" xmlns:xlink="http://www.w3.org/1999/xlink" x="0px" y="0px" width="689.5px" height="146.5px" viewBox="0 0 689.5 146.5" enable-background="new 0 0 689.5 146.5" xml:space="preserve">
<polygon display="none" points="-2188.4351,-1713.4766 -2223.7114,-1652.293 -2234.7192,-1660.667 -2214.9531,-1704.6382   -2240.375,-1714.375 -2229.8408,-1734.4121 "/>
<circle fill="#3A3836" cx="70.2222" cy="30.8164" r="7.3276"/>
<g>
	<path fill="#3A3836" d="M47.5293,94.3125l2.1934-3.7988c-0.9473-0.6533-1.9512-1.2324-2.999-1.7334l-2.1748,3.7686   C45.6025,93.041,46.6006,93.6328,47.5293,94.3125z"/>
	<path fill="#3A3836" d="M52.4424,92.7314l-2.2773,3.9443c2.8789,3.1543,4.6348,7.3516,4.6348,11.959   c0,9.8008-7.9434,17.7461-17.7451,17.7461c-9.8008,0-17.7451-7.9453-17.7451-17.7461s7.9443-17.7451,17.7451-17.7451   c1.4355,0,2.8301,0.1729,4.166,0.4951l2.2275-3.8594c-1.9658-0.5781-4.0449-0.8906-6.1982-0.8906c-12.1504,0-22,9.8496-22,22   s9.8496,22,22,22s22-9.8496,22-22C59.25,102.3789,56.6348,96.7373,52.4424,92.7314z"/>
</g>
<path fill="#3A3836" d="M99,70h0.3496C103.6973,70,107,67.0713,107,62.7109C107,62.6514,107,62,107,62h-3.7725  c0.0029,0-0.002,0.082-0.002,0.1416c0,2.1729-1.8154,3.8584-3.9795,3.8584H95v16.5684l16.127,25.9922l3.9209,0.0078L99,82.5684V70z"/>
<polygon fill="#3A3836" points="35.2988,108 39.2988,108 58.9482,74 55.5557,74 47,74 47,78 52.6582,78 "/>
<polygon fill="#3A3836" points="78.7227,39.2666 61.5127,42.5977 54.5557,33.5684 57.9727,16.4023 52.2227,15.6523 47.6387,35.9854   60.6777,54.4043 61.1113,79.2324 63.0479,131 70.8379,131 71.1396,77.416 74.1289,78.6689 91.3057,78.54 91.2461,74.6113   79.4727,68.915 79.1367,56.3262 83.5352,64.2598 103.5352,59.6963 102.6602,54.8809 87.0352,56.4443 "/>
<polygon fill="#3A3836" points="88.0557,111.0684 80.0557,110.9023 81.668,90.5605 92.2227,90.5371 "/>
<g>
	<path fill="#3A3836" d="M113.3604,86.6348c-2.4277,0-4.7637,0.3945-6.9473,1.1211l2.3359,3.7979   c1.5283-0.4307,3.1396-0.6641,4.8066-0.6641c9.8008,0,17.7451,7.9443,17.7451,17.7451s-7.9443,17.7461-17.7451,17.7461   c-9.8018,0-17.7461-7.9453-17.7461-17.7461c0-4.4375,1.6328-8.4912,4.3252-11.6025l-2.3955-3.8867   c-3.9424,3.9756-6.3789,9.4473-6.3789,15.4893c0,12.1504,9.8486,22,22,22c12.1504,0,22-9.8496,22-22   S125.5107,86.6348,113.3604,86.6348z"/>
	<path fill="#3A3836" d="M105.5322,92.8096l-2.2881-3.7139c-1.0146,0.5273-1.9834,1.1309-2.8975,1.8027l2.3018,3.7441   C103.5449,93.9424,104.5107,93.3291,105.5322,92.8096z"/>
</g>
<polygon fill="#3A3836" points="91.2227,82 58.3105,82 56.001,86 93.6875,86 "/>
<g>
	<g>
		<path fill="#3A3836" d="M154.4219,49.1348c0-4.6348,0.5586-8.7236,1.6797-12.2656c1.1191-3.541,2.668-6.5361,4.6484-8.9844    c1.9785-2.4473,4.3086-4.3486,6.9922-5.7031c2.6816-1.3535,5.6113-2.1611,8.7891-2.4219v7.8125    c-1.7188,0.2607-3.334,0.8467-4.8438,1.7578c-1.5117,0.9121-2.8398,2.2266-3.9844,3.9453    c-1.1465,1.7188-2.0449,3.8936-2.6953,6.5234c-0.6523,2.6309-1.0039,5.7422-1.0547,9.3359    c0.0508,3.6465,0.4023,6.7715,1.0547,9.375c0.6504,2.6045,1.5488,4.792,2.6953,6.5625c1.1445,1.7715,2.4863,3.125,4.0234,4.0625    c1.5352,0.9375,3.1367,1.5107,4.8047,1.7188v7.6563c-3.1777-0.209-6.1074-0.9893-8.7891-2.3438    c-2.6836-1.3535-5.0137-3.2549-6.9922-5.7031c-1.9805-2.4473-3.5293-5.4551-4.6484-9.0234    C154.9805,57.8721,154.4219,53.7705,154.4219,49.1348z M187.9375,31.7129c-1.1992-1.3535-2.4746-2.3691-3.8281-3.0469    c-1.3555-0.6768-2.8125-1.0674-4.375-1.1719v-7.7344c5.832,0.2607,10.7285,2.3184,14.6875,6.1719L187.9375,31.7129z     M179.7344,70.8535c1.5625-0.1563,3.0332-0.5723,4.4141-1.25c1.3789-0.6768,2.6426-1.666,3.7891-2.9688l6.4844,5.7031    c-1.9805,1.9277-4.1934,3.4121-6.6406,4.4531c-2.4492,1.042-5.1309,1.6406-8.0469,1.7969V70.8535z"/>
		<path fill="#3A3836" d="M212.4844,78.1973h-6.6719V37.8926h6.6719V78.1973z"/>
		<path fill="#3A3836" d="M222.7656,37.8926h6.5625v40.3047h-6.5625V37.8926z M234.9063,37.8926    c3.3906,0,6.3711,0.5381,8.9414,1.6133s4.7031,2.5068,6.3984,4.293s2.9619,3.8193,3.8008,6.0977    c0.8379,2.2783,1.2578,4.6211,1.2578,7.0273c0,3.3174-0.3555,6.1523-1.0664,8.5039s-1.6133,4.3203-2.707,5.9063    s-2.3242,2.835-3.6914,3.7461s-2.6895,1.5947-3.9648,2.0508c-1.2764,0.4561-2.4434,0.7471-3.5,0.875    c-1.0576,0.1279-1.8418,0.1914-2.3516,0.1914h-6.4531v-4.8125h4.2656c4.4473,0,7.6563-1.4219,9.625-4.2656    s2.9531-6.9639,2.9531-12.3594c0-1.6768-0.2012-3.3359-0.6016-4.9766c-0.4014-1.6406-1.1758-3.126-2.3242-4.457    s-2.707-2.4063-4.6758-3.2266s-4.5215-1.2305-7.6563-1.2305h-1.5859v-4.9766H234.9063z"/>
		<path fill="#3A3836" d="M297.6875,78.1973h-6.7813l-10.4453-30.1875l-10.5547,30.1875h-6.8359l14.1094-40.25h6.5078    L297.6875,78.1973z M284.0703,65.4004l1.5859,4.4297h-10.4453l1.5313-4.4297H284.0703z"/>
		<path fill="#3A3836" d="M306.3828,37.8926h6.5625v40.3047h-6.5625V37.8926z M318.5234,37.8926    c3.3906,0,6.3711,0.5381,8.9414,1.6133s4.7031,2.5068,6.3984,4.293s2.9619,3.8193,3.8008,6.0977    c0.8379,2.2783,1.2578,4.6211,1.2578,7.0273c0,3.3174-0.3555,6.1523-1.0664,8.5039s-1.6133,4.3203-2.707,5.9063    s-2.3242,2.835-3.6914,3.7461s-2.6895,1.5947-3.9648,2.0508c-1.2764,0.4561-2.4434,0.7471-3.5,0.875    c-1.0576,0.1279-1.8418,0.1914-2.3516,0.1914h-6.4531v-4.8125h4.2656c4.4473,0,7.6563-1.4219,9.625-4.2656    s2.9531-6.9639,2.9531-12.3594c0-1.6768-0.2012-3.3359-0.6016-4.9766c-0.4014-1.6406-1.1758-3.126-2.3242-4.457    s-2.707-2.4063-4.6758-3.2266s-4.5215-1.2305-7.6563-1.2305h-1.5859v-4.9766H318.5234z"/>
		<path fill="#3A3836" d="M348.4375,37.8926h6.6719v40.3047h-6.6719V37.8926z M373.6484,37.8926v4.9766h-16.2969v-4.9766H373.6484z     M371.9531,60.041h-14.6016v-4.4844h14.6016V60.041z M357.3516,73.2207h16.2969v4.9766h-16.2969V73.2207z"/>
		<path fill="#3A3836" d="M383.1641,70.8145c0.5098,0.292,1.1572,0.5742,1.9414,0.8477c0.7832,0.2734,1.5947,0.5283,2.4336,0.7656    c0.8379,0.2373,1.6768,0.4287,2.5156,0.5742c0.8379,0.1455,1.6221,0.2188,2.3516,0.2188h0.1641v5.1953h-0.1094    c-0.875,0-1.7773-0.0469-2.707-0.1367c-0.9297-0.0908-1.8691-0.2461-2.8164-0.4648c-0.9482-0.2188-1.8506-0.5195-2.707-0.9023    c-0.8574-0.3828-1.5957-0.8477-2.2148-1.3945L383.1641,70.8145z M382.2891,48.502c0-1.6045,0.2734-3.0439,0.8203-4.3203    s1.2852-2.3975,2.2148-3.3633s2.0234-1.7314,3.2813-2.2969s2.5791-0.9385,3.9648-1.1211v5.7422    c-1.167,0.4014-2.1328,1.1025-2.8984,2.1055s-1.1484,2.0146-1.1484,3.0352c0,1.4219,0.3828,2.5703,1.1484,3.4453    s1.7314,1.6406,2.8984,2.2969v6.2344c-1.2031-0.583-2.4063-1.2119-3.6094-1.8867s-2.2969-1.4678-3.2813-2.3789    s-1.7959-1.9688-2.4336-3.1719C382.6074,51.6191,382.2891,50.1787,382.2891,48.502z M401.1563,44.127    c-0.1826-0.0732-0.4014-0.2002-0.6563-0.3828c-0.2559-0.1826-0.6201-0.3555-1.0938-0.5195    c-0.4746-0.1641-1.0762-0.3008-1.8047-0.4102c-0.7295-0.1094-1.6592-0.1279-2.7891-0.0547v-5.5234    c1.6035,0.0361,3.2354,0.21,4.8945,0.5195c1.6582,0.3096,2.998,0.793,4.0195,1.4492c-0.2188,0.4736-0.4746,0.9932-0.7656,1.5586    c-0.292,0.5654-0.5654,1.0938-0.8203,1.5859c-0.2559,0.4922-0.4746,0.9023-0.6563,1.2305    C401.3018,43.9082,401.1924,44.0908,401.1563,44.127z M394.8125,55.1191c1.2031,0.5469,2.4336,1.1299,3.6914,1.75    s2.3965,1.376,3.418,2.2695c1.0205,0.8936,1.8594,1.9775,2.5156,3.2539s0.9844,2.8623,0.9844,4.7578    c0,1.3125-0.2461,2.5889-0.7383,3.8281s-1.1855,2.3604-2.0781,3.3633c-0.8936,1.0029-1.9961,1.8506-3.3086,2.543    s-2.8076,1.1484-4.4844,1.3672v-5.25c2.9893-0.7295,4.4844-2.7158,4.4844-5.9609c0-1.2764-0.4199-2.333-1.2578-3.1719    c-0.8389-0.8389-1.9141-1.6221-3.2266-2.3516V55.1191z"/>
		<path fill="#3A3836" d="M438.1641,33.2754c0-1.6143,0.2598-3.125,0.7813-4.5313c0.5195-1.4063,1.2754-2.6953,2.2656-3.8672    c0.9883-1.1719,2.1738-2.1484,3.5547-2.9297c1.3789-0.7813,2.9023-1.3281,4.5703-1.6406v7.9688    c-0.9902,0.417-1.8359,1.0684-2.5391,1.9531c-0.7031,0.8857-1.0547,1.9014-1.0547,3.0469c0,1.8232,0.377,3.4121,1.1328,4.7656    c0.7539,1.3545,1.5742,2.5264,2.4609,3.5156v11.7969c-2.6055,1.7188-4.4922,3.5684-5.6641,5.5469    c-1.1719,1.9795-1.7578,3.9063-1.7578,5.7813c0,0.5732,0.1172,1.2764,0.3516,2.1094c0.2344,0.834,0.6367,1.6279,1.2109,2.3828    c0.5723,0.7559,1.3145,1.4063,2.2266,1.9531c0.9102,0.5469,2.043,0.8203,3.3984,0.8203h0.2344v6.7969h-1.0156    c-1.668,0-3.3203-0.2617-4.9609-0.7813c-1.6406-0.5205-3.1387-1.3535-4.4922-2.5c-1.3555-1.1455-2.4492-2.6172-3.2813-4.4141    c-0.834-1.7969-1.25-3.9189-1.25-6.3672c0-2.083,0.3125-4.0098,0.9375-5.7813c0.625-1.7705,1.457-3.3721,2.5-4.8047    c1.041-1.4316,2.2266-2.7344,3.5547-3.9063s2.668-2.1738,4.0234-3.0078c-0.625-0.625-1.3555-1.3926-2.1875-2.3047    c-0.834-0.9111-1.6289-1.9395-2.3828-3.0859c-0.7559-1.1455-1.3809-2.4346-1.875-3.8672    C438.4102,36.4922,438.1641,34.9424,438.1641,33.2754z M479.6484,78.1973h-9.7656l-5.3906-6.7188    c-1.3555,1.7715-3.0215,3.2686-5,4.4922c-1.9805,1.2246-4.2969,2.0449-6.9531,2.4609v-6.875    c2.0313-0.5723,3.6191-1.4453,4.7656-2.6172c1.1445-1.1719,2.1094-2.2266,2.8906-3.1641c-1.25-1.5098-2.5273-3.0205-3.8281-4.5313    c-1.3027-1.5098-2.5781-2.9688-3.8281-4.375V43.666c2.291-1.1455,4.0098-2.6035,5.1563-4.375    c1.1445-1.7705,1.7188-3.541,1.7188-5.3125c0-2.0313-0.6641-3.5801-1.9922-4.6484c-1.3281-1.0674-2.957-1.627-4.8828-1.6797    v-7.5781c1.8223,0,3.5801,0.2734,5.2734,0.8203c1.6914,0.5469,3.2031,1.3936,4.5313,2.5391    c1.3281,1.1465,2.3828,2.5781,3.1641,4.2969s1.1719,3.75,1.1719,6.0938c-0.1055,2.0313-0.4688,3.8672-1.0938,5.5078    s-1.4453,3.1123-2.4609,4.4141c-1.0156,1.3027-2.1367,2.4355-3.3594,3.3984c-1.2246,0.9639-2.4355,1.7578-3.6328,2.3828    c0.9883,1.4063,2.2656,2.9434,3.8281,4.6094c1.5625,1.667,3.0469,3.3076,4.4531,4.9219c0.5723-0.8848,1.1191-1.8096,1.6406-2.7734    c0.5195-0.9629,1.0938-2.1221,1.7188-3.4766l6.0938,2.5c-0.5742,1.667-1.2773,3.3076-2.1094,4.9219    c-0.834,1.6152-1.7188,3.2295-2.6563,4.8438L479.6484,78.1973z"/>
		<path fill="#3A3836" d="M512.6172,20.6191h9.375v57.5781h-9.375V20.6191z M539.8047,47.8848    c1.1973,0.1563,2.4727,0.5469,3.8281,1.1719c1.3535,0.625,2.6172,1.5107,3.7891,2.6563c1.1719,1.1465,2.1484,2.5391,2.9297,4.1797    s1.1719,3.5293,1.1719,5.6641c0,2.6045-0.3906,4.8438-1.1719,6.7188s-1.7578,3.4248-2.9297,4.6484    c-1.1719,1.2246-2.4492,2.1875-3.8281,2.8906c-1.3809,0.7031-2.709,1.2373-3.9844,1.6016    c-1.2773,0.3652-2.4102,0.5859-3.3984,0.6641c-0.9902,0.0781-1.6406,0.1172-1.9531,0.1172h-9.0625v-6.875h8.5156    c2.7598,0,4.9219-0.8848,6.4844-2.6563c1.5625-1.7705,2.3438-4.1406,2.3438-7.1094c0-2.8125-0.8086-5.1816-2.4219-7.1094    c-1.6152-1.9268-3.9844-2.8906-7.1094-2.8906h-7.8125v-6.3281h3.75c1.1445,0,2.3164-0.0254,3.5156-0.0781    c1.1973-0.0518,2.3164-0.3379,3.3594-0.8594c1.041-0.5205,1.8867-1.4063,2.5391-2.6563c0.6504-1.25,0.9766-3.0469,0.9766-5.3906    c0-0.9375-0.1309-1.9141-0.3906-2.9297c-0.2617-1.0156-0.7813-1.9395-1.5625-2.7734c-0.7813-0.833-1.9023-1.5098-3.3594-2.0313    c-1.459-0.5205-3.3867-0.7813-5.7813-0.7813h-3.0469v-7.1094h3.9844c2.4473,0,4.8164,0.2871,7.1094,0.8594    c2.291,0.5732,4.3223,1.4844,6.0938,2.7344c1.7695,1.25,3.1758,2.8779,4.2188,4.8828c1.041,2.0059,1.5625,4.3887,1.5625,7.1484    c0,1.6152-0.2617,3.0859-0.7813,4.4141c-0.5215,1.3281-1.1719,2.4873-1.9531,3.4766c-0.7813,0.9902-1.6797,1.8105-2.6953,2.4609    C541.7188,47.2471,540.7422,47.6768,539.8047,47.8848z"/>
		<path fill="#3A3836" d="M569.3516,78.1973h-6.6719V37.8926h6.6719V78.1973z"/>
		<path fill="#3A3836" d="M579.4688,78.1973V37.8926h6.6719v40.3047H579.4688z M592.7578,58.6191l14,19.5781h-7.6016    l-10.7734-15.8594v-7.9844l9.7891-16.4609h7.4922L592.7578,58.6191z"/>
		<path fill="#3A3836" d="M616.1094,37.8926h6.6719v40.3047h-6.6719V37.8926z M641.3203,37.8926v4.9766h-16.2969v-4.9766H641.3203z     M639.625,60.041h-14.6016v-4.4844h14.6016V60.041z M625.0234,73.2207h16.2969v4.9766h-16.2969V73.2207z"/>
		<path fill="#3A3836" d="M650.8359,70.8145c0.5098,0.292,1.1572,0.5742,1.9414,0.8477c0.7832,0.2734,1.5947,0.5283,2.4336,0.7656    c0.8379,0.2373,1.6768,0.4287,2.5156,0.5742c0.8379,0.1455,1.6221,0.2188,2.3516,0.2188h0.1641v5.1953h-0.1094    c-0.875,0-1.7773-0.0469-2.707-0.1367c-0.9297-0.0908-1.8691-0.2461-2.8164-0.4648c-0.9482-0.2188-1.8506-0.5195-2.707-0.9023    c-0.8574-0.3828-1.5957-0.8477-2.2148-1.3945L650.8359,70.8145z M649.9609,48.502c0-1.6045,0.2734-3.0439,0.8203-4.3203    s1.2852-2.3975,2.2148-3.3633s2.0234-1.7314,3.2813-2.2969s2.5791-0.9385,3.9648-1.1211v5.7422    c-1.167,0.4014-2.1328,1.1025-2.8984,2.1055s-1.1484,2.0146-1.1484,3.0352c0,1.4219,0.3828,2.5703,1.1484,3.4453    s1.7314,1.6406,2.8984,2.2969v6.2344c-1.2031-0.583-2.4063-1.2119-3.6094-1.8867s-2.2969-1.4678-3.2813-2.3789    s-1.7959-1.9688-2.4336-3.1719C650.2793,51.6191,649.9609,50.1787,649.9609,48.502z M668.8281,44.127    c-0.1826-0.0732-0.4014-0.2002-0.6563-0.3828c-0.2559-0.1826-0.6201-0.3555-1.0938-0.5195    c-0.4746-0.1641-1.0762-0.3008-1.8047-0.4102c-0.7295-0.1094-1.6592-0.1279-2.7891-0.0547v-5.5234    c1.6035,0.0361,3.2354,0.21,4.8945,0.5195c1.6582,0.3096,2.998,0.793,4.0195,1.4492c-0.2188,0.4736-0.4746,0.9932-0.7656,1.5586    c-0.292,0.5654-0.5654,1.0938-0.8203,1.5859c-0.2559,0.4922-0.4746,0.9023-0.6563,1.2305    C668.9736,43.9082,668.8643,44.0908,668.8281,44.127z M662.4844,55.1191c1.2031,0.5469,2.4336,1.1299,3.6914,1.75    s2.3965,1.376,3.418,2.2695c1.0205,0.8936,1.8594,1.9775,2.5156,3.2539s0.9844,2.8623,0.9844,4.7578    c0,1.3125-0.2461,2.5889-0.7383,3.8281s-1.1855,2.3604-2.0781,3.3633c-0.8936,1.0029-1.9961,1.8506-3.3086,2.543    s-2.8076,1.1484-4.4844,1.3672v-5.25c2.9893-0.7295,4.4844-2.7158,4.4844-5.9609c0-1.2764-0.4199-2.333-1.2578-3.1719    c-0.8389-0.8389-1.9141-1.6221-3.2266-2.3516V55.1191z"/>
	</g>
</g>
<g>
	<g>
		<path fill="#3A3836" d="M155.9785,114.4531c0-2.5195,0.292-4.7529,0.8789-6.7012c0.5859-1.9482,1.3906-3.6035,2.417-4.9668    c1.0244-1.3613,2.2549-2.4385,3.6914-3.2295c1.4346-0.791,2.9883-1.2891,4.6582-1.4941v4.3945    c-0.8789,0.2354-1.6924,0.6299-2.4395,1.1865s-1.4063,1.3262-1.9775,2.3066c-0.5713,0.9824-1.0176,2.1689-1.3398,3.5605    c-0.3232,1.3916-0.499,3.0391-0.5273,4.9434c0.0283,1.9043,0.2041,3.5742,0.5273,5.0098    c0.3223,1.4355,0.7686,2.6738,1.3398,3.7129c0.5713,1.041,1.2305,1.8682,1.9775,2.4834s1.5605,1.04,2.4395,1.2744v3.999    c-1.6699-0.2041-3.2236-0.71-4.6582-1.5166c-1.4365-0.8047-2.667-1.8965-3.6914-3.2734c-1.0264-1.377-1.8311-3.0391-2.417-4.9883    C156.2705,119.207,155.9785,116.9727,155.9785,114.4531z M174.8311,104.6533c-0.7031-0.8496-1.5098-1.4648-2.417-1.8457    c-0.9082-0.3799-1.8457-0.5713-2.8125-0.5713h-0.1758v-4.3506h0.0439c1.7578,0,3.3975,0.293,4.9219,0.8789    c1.5225,0.5869,2.8848,1.4658,4.0869,2.6367L174.8311,104.6533z M180.1484,114.1016v12.5244    c-0.6748,0.8506-1.4287,1.5459-2.2637,2.0869c-0.835,0.543-1.7139,0.9893-2.6367,1.3408s-1.875,0.6006-2.8564,0.7471    s-1.9551,0.2197-2.9219,0.2197h-0.0439v-3.8672c0.3516,0,0.7832-0.0225,1.2959-0.0654c0.5127-0.0449,1.04-0.1172,1.582-0.2207    c0.542-0.1016,1.0547-0.2412,1.5381-0.417s0.8418-0.4248,1.0771-0.7471v-7.998h-5.4932v-3.6035H180.1484z"/>
		<path fill="#3A3836" d="M186.4766,108.1289h3.6914v22.6719h-3.6914V108.1289z M201.8574,130.8008h-3.9072l-4.2754-8.2129    c-0.0615,0-0.1289,0.0049-0.2002,0.0146c-0.0723,0.0107-0.1797,0.0156-0.3232,0.0156s-0.3535,0-0.6299,0    c-0.2773,0-0.6416,0-1.0928,0v-2.707h2.0918c0.4512,0,0.9023-0.0771,1.3535-0.2305c0.4512-0.1543,0.8613-0.4053,1.2305-0.7539    s0.667-0.835,0.8926-1.4609s0.3379-1.3994,0.3379-2.3232c0-0.3691-0.0518-0.7939-0.1533-1.2764    c-0.1035-0.4814-0.3135-0.9424-0.6309-1.3838c-0.3184-0.4414-0.7637-0.8105-1.3379-1.1074s-1.334-0.4463-2.2764-0.4463h-1.5078    v-2.7998h1.5693c0.9629,0,1.917,0.1543,2.8604,0.4619s1.7891,0.7686,2.5381,1.3838c0.748,0.6152,1.3535,1.3594,1.8145,2.2305    c0.4619,0.8721,0.6924,1.8516,0.6924,2.9375c0,1.6416-0.3799,3.0361-1.1377,4.1836c-0.7598,1.1494-1.7842,2-3.0762,2.5537    L201.8574,130.8008z"/>
		<path fill="#3A3836" d="M225.4209,130.8008h-3.8145l-5.876-16.9805l-5.9365,16.9805h-3.8457l7.9365-22.6406h3.6611    L225.4209,130.8008z M217.7607,123.6025l0.8926,2.4912h-5.876l0.8613-2.4912H217.7607z"/>
		<path fill="#3A3836" d="M230.1885,130.8008v-22.6719h3.7529v22.6719H230.1885z M242.832,108.1289h3.7529v22.6719h-3.7529    l-7.6289-13.4121v-7.0752l7.6289,13.4424V108.1289z"/>
		<path fill="#3A3836" d="M252.3369,108.1289h3.6914v22.6719h-3.6914V108.1289z M259.166,108.1289    c1.9072,0,3.584,0.3027,5.0293,0.9082c1.4463,0.6055,2.6455,1.4102,3.5996,2.4141c0.9531,1.0059,1.666,2.1484,2.1377,3.4307    s0.708,2.5986,0.708,3.9521c0,1.8672-0.2002,3.4609-0.6006,4.7842c-0.3994,1.3223-0.9072,2.4297-1.5225,3.3223    c-0.6152,0.8916-1.3076,1.5947-2.0762,2.1064c-0.7695,0.5137-1.5127,0.8984-2.2305,1.1543s-1.374,0.4199-1.9688,0.4922    s-1.0352,0.1074-1.3223,0.1074H257.29v-2.707h2.3994c2.502,0,4.3066-0.7998,5.4141-2.3994s1.6611-3.917,1.6611-6.9521    c0-0.9434-0.1133-1.877-0.3389-2.7988c-0.2256-0.9238-0.6611-1.7588-1.3076-2.5078c-0.6455-0.748-1.5225-1.3535-2.6299-1.8145    c-1.1074-0.4619-2.543-0.6924-4.3066-0.6924H257.29v-2.7998H259.166z"/>
		<path fill="#3A3836" d="M275.9932,108.1289h3.7529v22.6719h-3.7529V108.1289z M290.1738,108.1289v2.7998h-9.167v-2.7998H290.1738z     M289.2207,120.5879h-8.2139v-2.5225h8.2139V120.5879z M281.0068,128.002h9.167v2.7988h-9.167V128.002z"/>
		<path fill="#3A3836" d="M308.6045,98.4131h5.3613v32.3877h-5.3613V98.4131z M328.8633,98.4131v3.999h-13.0957v-3.999H328.8633z     M327.501,116.2109h-11.7334v-3.6035h11.7334V116.2109z"/>
		<path fill="#3A3836" d="M337.0156,108.1289v19.873h10.4277v2.7988h-14.1807v-22.6719H337.0156z"/>
		<path fill="#3A3836" d="M350.7354,119.3574c0-1.8252,0.2197-3.4395,0.6611-4.8447c0.4404-1.4053,1.0557-2.5947,1.8457-3.5684    c0.7891-0.9736,1.7227-1.7227,2.7988-2.2461c1.0771-0.5225,2.251-0.8252,3.5225-0.9072v3.0762    c-0.6973,0.082-1.3535,0.2979-1.9688,0.6465s-1.1484,0.8613-1.5996,1.5371c-0.4512,0.6777-0.8105,1.5391-1.0762,2.584    c-0.2666,1.0469-0.4111,2.2871-0.4307,3.7227c0.0195,1.4561,0.1641,2.7021,0.4307,3.7373    c0.2656,1.0361,0.6299,1.9023,1.0918,2.5996c0.4609,0.6973,1,1.2256,1.6152,1.584c0.6152,0.3594,1.2607,0.5693,1.9375,0.6309    v3.0459c-1.251-0.083-2.4199-0.3848-3.5068-0.9082c-1.0869-0.5225-2.0254-1.2715-2.8145-2.2451    c-0.79-0.9736-1.4053-2.1689-1.8457-3.584C350.9551,122.8027,350.7354,121.1826,350.7354,119.3574z M360.7939,107.791    c1.251,0.0615,2.415,0.3594,3.4912,0.8926c1.0771,0.5332,2.0098,1.2871,2.7998,2.2607c0.7891,0.9736,1.4102,2.1631,1.8613,3.5684    c0.4502,1.4053,0.6768,3.0195,0.6768,4.8447s-0.2266,3.4453-0.6768,4.8604c-0.4512,1.415-1.0723,2.6104-1.8613,3.584    c-0.79,0.9736-1.7178,1.7227-2.7842,2.2451c-1.0664,0.5234-2.2354,0.8252-3.5068,0.9082v-3.0459    c0.6973-0.082,1.3535-0.3018,1.9688-0.6611s1.1484-0.8818,1.5996-1.5693c0.4512-0.6865,0.8105-1.5479,1.0771-2.584    c0.2656-1.0352,0.4102-2.2813,0.4307-3.7373c-0.0205-1.4561-0.165-2.7012-0.4307-3.7373    c-0.2666-1.0361-0.6309-1.8975-1.0928-2.584c-0.4609-0.6865-0.999-1.21-1.6143-1.5693c-0.6152-0.3584-1.2617-0.5684-1.9385-0.6309    V107.791z"/>
		<path fill="#3A3836" d="M374.7598,108.1289h3.6914v22.6719h-3.6914V108.1289z M390.1406,130.8008h-3.9063l-4.2764-8.2129    c-0.0615,0-0.1279,0.0049-0.2002,0.0146c-0.0713,0.0107-0.1797,0.0156-0.3223,0.0156c-0.1436,0-0.3545,0-0.6309,0    c-0.2773,0-0.6416,0-1.0918,0v-2.707h2.0918c0.4502,0,0.9023-0.0771,1.3535-0.2305c0.4502-0.1543,0.8613-0.4053,1.2305-0.7539    s0.666-0.835,0.8916-1.4609s0.3389-1.3994,0.3389-2.3232c0-0.3691-0.0518-0.7939-0.1543-1.2764    c-0.1025-0.4814-0.3125-0.9424-0.6309-1.3838c-0.3174-0.4414-0.7637-0.8105-1.3379-1.1074s-1.333-0.4463-2.2764-0.4463h-1.5068    v-2.7998h1.5684c0.9639,0,1.918,0.1543,2.8613,0.4619c0.9424,0.3076,1.7891,0.7686,2.5371,1.3838    c0.749,0.6152,1.3535,1.3594,1.8154,2.2305c0.4609,0.8721,0.6924,1.8516,0.6924,2.9375c0,1.6416-0.3799,3.0361-1.1387,4.1836    c-0.7588,1.1494-1.7842,2-3.0762,2.5537L390.1406,130.8008z"/>
		<path fill="#3A3836" d="M398.9385,130.8008h-3.7529v-22.6719h3.7529V130.8008z"/>
		<path fill="#3A3836" d="M423.1787,130.8008h-3.8145l-5.875-16.9805l-5.9375,16.9805h-3.8447l7.9365-22.6406h3.6602    L423.1787,130.8008z M415.5195,123.6025l0.8916,2.4912h-5.875l0.8613-2.4912H415.5195z"/>
		<path fill="#3A3836" d="M427.9473,130.8008v-22.6719h3.7529v22.6719H427.9473z M440.5898,108.1289h3.7529v22.6719h-3.7529    l-7.6289-13.4121v-7.0752l7.6289,13.4424V108.1289z"/>
		<path fill="#3A3836" d="M449.5107,119.3574c0-1.8252,0.2207-3.4395,0.6621-4.8447c0.4404-1.4053,1.0557-2.5947,1.8457-3.5684    c0.7891-0.9736,1.7227-1.7227,2.7988-2.2461c1.0771-0.5225,2.25-0.8252,3.5225-0.9072v3.0762    c-0.6973,0.082-1.3535,0.2979-1.9688,0.6465s-1.1494,0.8613-1.5996,1.5371c-0.4512,0.6777-0.8105,1.5391-1.0771,2.584    c-0.2666,1.0469-0.4102,2.2871-0.4307,3.7227c0.0205,1.4561,0.1641,2.7021,0.4307,3.7373    c0.2666,1.0361,0.6309,1.9023,1.0928,2.5996c0.4609,0.6973,0.999,1.2256,1.6143,1.584c0.6152,0.3594,1.2617,0.5693,1.9385,0.6309    v3.0459c-1.251-0.083-2.4199-0.3848-3.5068-0.9082c-1.0879-0.5225-2.0254-1.2715-2.8145-2.2451    c-0.79-0.9736-1.4053-2.1689-1.8457-3.584C449.7314,122.8027,449.5107,121.1826,449.5107,119.3574z M461.8467,101.5771    l-3.3535,4.3682h-2.4609l2.0615-4.3682H461.8467z M459.5703,107.791c1.25,0.0615,2.415,0.3594,3.4912,0.8926    c1.0771,0.5332,2.0098,1.2871,2.7998,2.2607c0.7891,0.9736,1.4092,2.1631,1.8604,3.5684s0.6768,3.0195,0.6768,4.8447    s-0.2256,3.4453-0.6768,4.8604s-1.0713,2.6104-1.8604,3.584c-0.79,0.9736-1.7188,1.7227-2.7842,2.2451    c-1.0664,0.5234-2.2354,0.8252-3.5068,0.9082v-3.0459c0.6963-0.082,1.3535-0.3018,1.9688-0.6611s1.1484-0.8818,1.5996-1.5693    c0.4502-0.6865,0.8096-1.5479,1.0762-2.584c0.2666-1.0352,0.4102-2.2813,0.4307-3.7373    c-0.0205-1.4561-0.1641-2.7012-0.4307-3.7373s-0.6299-1.8975-1.0918-2.584c-0.4609-0.6865-1-1.21-1.6152-1.5693    c-0.6152-0.3584-1.2607-0.5684-1.9375-0.6309V107.791z"/>
		<path fill="#3A3836" d="M473.5664,108.1289h3.6914v22.6719h-3.6914V108.1289z M480.0879,108.1289    c0.9639,0,1.918,0.1543,2.8613,0.4619c0.9424,0.3076,1.7891,0.7686,2.5381,1.3838c0.748,0.6152,1.3535,1.3594,1.8145,2.2305    c0.4619,0.8721,0.6924,1.8516,0.6924,2.9375c0,1.1494-0.1953,2.1895-0.585,3.123s-0.9336,1.7178-1.6299,2.3535    c-0.6973,0.6357-1.5381,1.1279-2.5225,1.4766s-2.0723,0.5225-3.2607,0.5225h-1.4766v-2.707h2.1221    c0.4512,0,0.8975-0.0771,1.3389-0.2305c0.4404-0.1543,0.8457-0.4053,1.2148-0.7539s0.666-0.835,0.8916-1.4609    s0.3389-1.3994,0.3389-2.3232c0-0.3691-0.0518-0.7939-0.1543-1.2764c-0.1025-0.4814-0.3125-0.9424-0.6299-1.3838    c-0.3184-0.4414-0.7646-0.8105-1.3389-1.1074s-1.333-0.4463-2.2764-0.4463h-1.5068v-2.7998H480.0879z"/>
		<path fill="#3A3836" d="M491.7471,119.3574c0-1.8252,0.2197-3.4395,0.6611-4.8447c0.4404-1.4053,1.0557-2.5947,1.8457-3.5684    c0.7891-0.9736,1.7227-1.7227,2.7988-2.2461c1.0771-0.5225,2.251-0.8252,3.5225-0.9072v3.0762    c-0.6973,0.082-1.3535,0.2979-1.9688,0.6465s-1.1484,0.8613-1.5996,1.5371c-0.4512,0.6777-0.8105,1.5391-1.0762,2.584    c-0.2666,1.0469-0.4111,2.2871-0.4307,3.7227c0.0195,1.4561,0.1641,2.7021,0.4307,3.7373    c0.2656,1.0361,0.6299,1.9023,1.0918,2.5996c0.4609,0.6973,1,1.2256,1.6152,1.584c0.6152,0.3594,1.2607,0.5693,1.9375,0.6309    v3.0459c-1.251-0.083-2.4199-0.3848-3.5068-0.9082c-1.0869-0.5225-2.0254-1.2715-2.8145-2.2451    c-0.79-0.9736-1.4053-2.1689-1.8457-3.584C491.9668,122.8027,491.7471,121.1826,491.7471,119.3574z M501.8057,107.791    c1.251,0.0615,2.415,0.3594,3.4912,0.8926c1.0771,0.5332,2.0098,1.2871,2.7998,2.2607c0.7891,0.9736,1.4102,2.1631,1.8613,3.5684    c0.4502,1.4053,0.6768,3.0195,0.6768,4.8447s-0.2266,3.4453-0.6768,4.8604c-0.4512,1.415-1.0723,2.6104-1.8613,3.584    c-0.79,0.9736-1.7178,1.7227-2.7842,2.2451c-1.0664,0.5234-2.2354,0.8252-3.5068,0.9082v-3.0459    c0.6973-0.082,1.3535-0.3018,1.9688-0.6611s1.1484-0.8818,1.5996-1.5693c0.4512-0.6865,0.8105-1.5479,1.0771-2.584    c0.2656-1.0352,0.4102-2.2813,0.4307-3.7373c-0.0205-1.4561-0.165-2.7012-0.4307-3.7373    c-0.2666-1.0361-0.6309-1.8975-1.0928-2.584c-0.4609-0.6865-0.999-1.21-1.6143-1.5693c-0.6152-0.3584-1.2617-0.5684-1.9385-0.6309    V107.791z"/>
		<path fill="#3A3836" d="M519.6172,108.1289v19.873h10.4277v2.7988h-14.1807v-22.6719H519.6172z"/>
		<path fill="#3A3836" d="M537.6123,130.8008h-3.7529v-22.6719h3.7529V130.8008z"/>
		<path fill="#3A3836" d="M543.5801,126.6484c0.2871,0.1641,0.6514,0.3223,1.0918,0.4766c0.4414,0.1533,0.8975,0.2969,1.3691,0.4307    s0.9434,0.2412,1.415,0.3232s0.9121,0.123,1.3232,0.123h0.0918v2.9219h-0.0615c-0.4922,0-1-0.0254-1.5225-0.0771    c-0.5234-0.0508-1.0508-0.1377-1.584-0.2607c-0.5342-0.123-1.041-0.293-1.5234-0.5078c-0.4814-0.2158-0.8965-0.4766-1.2451-0.7852    L543.5801,126.6484z M543.0879,114.0977c0-0.9023,0.1543-1.7129,0.4619-2.4307s0.7227-1.3486,1.2451-1.8916    c0.5234-0.543,1.1387-0.9746,1.8457-1.292c0.708-0.3174,1.4512-0.5283,2.2305-0.6309v3.2295    c-0.6563,0.2266-1.1992,0.6211-1.6299,1.1846c-0.4307,0.5645-0.6465,1.1338-0.6465,1.708c0,0.7988,0.2158,1.4453,0.6465,1.9375    s0.9736,0.9229,1.6299,1.292v3.5068c-0.6768-0.3281-1.3535-0.6816-2.0303-1.0615c-0.6768-0.3789-1.292-0.8252-1.8457-1.3379    s-1.0098-1.1074-1.3691-1.7842C543.2676,115.8506,543.0879,115.041,543.0879,114.0977z M553.7012,111.6367    c-0.1035-0.041-0.2266-0.1133-0.3691-0.2158c-0.1436-0.1025-0.3496-0.2002-0.6152-0.292    c-0.2666-0.0928-0.6055-0.1699-1.0156-0.2305c-0.4102-0.0625-0.9336-0.0723-1.5684-0.0313v-3.1074    c0.9023,0.0215,1.8193,0.1191,2.7529,0.293c0.9326,0.1738,1.6865,0.4453,2.2607,0.8145c-0.123,0.2676-0.2666,0.5596-0.4307,0.877    c-0.1641,0.3184-0.3184,0.6152-0.4609,0.8926c-0.1436,0.2764-0.2666,0.5078-0.3691,0.6914    C553.7822,111.5137,553.7207,111.6162,553.7012,111.6367z M550.1328,117.8193c0.6768,0.3076,1.3682,0.6357,2.0762,0.9844    c0.707,0.3486,1.3486,0.7744,1.9229,1.2764c0.5732,0.5029,1.0459,1.1133,1.415,1.8301c0.3691,0.7188,0.5537,1.6104,0.5537,2.6768    c0,0.7383-0.1387,1.4561-0.416,2.1533c-0.2764,0.6973-0.666,1.3281-1.1689,1.8916c-0.502,0.5645-1.1221,1.041-1.8604,1.4307    s-1.5801,0.6465-2.5225,0.7695v-2.9531c1.6807-0.4102,2.5225-1.5283,2.5225-3.3535c0-0.7178-0.2363-1.3125-0.708-1.7842    s-1.0762-0.9121-1.8145-1.3232V117.8193z"/>
	</g>
</g>
</svg>