<?xml version="1.0" encoding="UTF-8"?>
<!-- Generator: Adobe Illustrator 16.0.0, SVG Export Plug-In . SVG Version: 6.00 Build 0)  -->
<!DOCTYPE svg PUBLIC "-//W3C//DTD SVG 1.1//EN" "http://www.w3.org/Graphics/SVG/1.1/DTD/svg11.dtd">
<svg version="1.1" id="Layer_1" xmlns="http://www.w3.org/2000/svg" xmlns:xlink="http://www.w3.org/1999/xlink" x="0px" y="0px" width="25.8203px" height="30px" viewBox="0 0 25.8203 30" enable-background="new 0 0 25.8203 30" xml:space="preserve">
<linearGradient id="SVGID_1_" gradientUnits="userSpaceOnUse" x1="-155.0898" y1="581" x2="-155.0898" y2="611" gradientTransform="matrix(1 0 0 1 168 -581)">
	<stop offset="0" style="stop-color:#CCCCCC"/>
	<stop offset="1" style="stop-color:#4D4D4D"/>
</linearGradient>
<path fill="url(#SVGID_1_)" d="M25.8203,12.9102C25.8203,5.7822,20.041,0,12.9111,0C5.7837,0,0.0005,5.7817,0.0005,12.9102  c0,5.5488,3.5103,10.2676,8.4238,12.0918L12.9097,30l4.4849-4.998C22.3105,23.1797,25.8203,18.4609,25.8203,12.9102z"/>
<circle fill="#FAB339" cx="12.9111" cy="12.9104" r="12.2947"/>
<polygon fill="#FAB339" points="19.6172,21.4277 12.9097,28.9023 6.2036,21.4277 "/>
<circle fill="#FFFFFF" cx="12.9111" cy="12.9114" r="11.0652"/>
<rect x="5.4028" y="5.7964" fill="none" width="15.0151" height="14.0356"/>
<circle display="none" opacity="0.7" fill="#A48460" enable-background="new    " cx="12.9111" cy="12.9092" r="12.9092"/>
<polygon display="none" opacity="0.7" fill="#A48460" enable-background="new    " points="20.6035,21.4277 12.9097,30   5.2173,21.4277 "/>
<path d="M17.4336,10.0098l0.0078-0.0049l-2.2363-2.2383l-0.6387,0.6372l1.2695,1.27c-0.5674,0.2178-0.9707,0.7583-0.9707,1.4023  c0,0.8301,0.6738,1.5039,1.5039,1.5039c0.2188,0,0.415-0.0488,0.6035-0.1284v4.3374c0,0.332-0.2725,0.6016-0.6035,0.6016  c-0.332,0-0.6016-0.2695-0.6016-0.6016v-2.7075c0-0.6616-0.543-1.2046-1.2031-1.2046h-0.6016v-4.207  c0-0.6616-0.542-1.2036-1.2051-1.2036H9.1514c-0.6606,0-1.2026,0.542-1.2026,1.2036v9.624h6.0151v-4.5117h0.9014V16.79  c0,0.8311,0.6738,1.5039,1.5039,1.5039c0.832,0,1.5039-0.6729,1.5039-1.5039v-5.7139  C17.873,10.6611,17.7041,10.2813,17.4336,10.0098z M12.7588,11.6777H9.1514V8.6699h3.6099v3.0078H12.7588z M16.3691,11.6777  c-0.332,0-0.6016-0.2715-0.6016-0.6016c0-0.332,0.2695-0.605,0.6016-0.605s0.6035,0.2729,0.6035,0.605  C16.9727,11.4063,16.7002,11.6777,16.3691,11.6777z"/>
</svg>