<?xml version="1.0" encoding="UTF-8"?>
<!-- Generator: Adobe Illustrator 16.0.0, SVG Export Plug-In . SVG Version: 6.00 Build 0)  -->
<!DOCTYPE svg PUBLIC "-//W3C//DTD SVG 1.1//EN" "http://www.w3.org/Graphics/SVG/1.1/DTD/svg11.dtd">
<svg version="1.1" id="Layer_1" xmlns="http://www.w3.org/2000/svg" xmlns:xlink="http://www.w3.org/1999/xlink" x="0px" y="0px" width="25.8208px" height="30.0005px" viewBox="-1.1917 -1.656 25.8208 30.0005" enable-background="new -1.1917 -1.656 25.8208 30.0005" xml:space="preserve">
<linearGradient id="SVGID_1_" gradientUnits="userSpaceOnUse" x1="-72.281" y1="3.3059" x2="-72.281" y2="-26.6951" gradientTransform="matrix(1 0 0 -1 84 1.6499)">
	<stop offset="0" style="stop-color:#CCCCCC"/>
	<stop offset="1" style="stop-color:#4D4D4D"/>
</linearGradient>
<path fill="url(#SVGID_1_)" d="M24.6292,11.2546c0-7.1284-5.7813-12.9106-12.9102-12.9106c-7.1274,0-12.9106,5.7813-12.9106,12.9106  c0,5.5488,3.5098,10.2676,8.4238,12.0918l4.4849,4.998l4.4863-4.998C21.1194,21.5242,24.6292,16.8054,24.6292,11.2546z"/>
<circle fill="#ED1C24" cx="11.719" cy="11.2549" r="12.2947"/>
<polygon fill="#ED1C24" points="18.426,19.7722 11.717,27.2449 5.0115,19.7722 "/>
<circle fill="#FFFFFF" cx="11.719" cy="11.2549" r="11.0642"/>
<rect x="4.2107" y="4.1409" fill="none" width="15.0161" height="14.0356"/>
<text transform="matrix(1 0 0 1 6.905 16.2742)" display="none" enable-background="new    " font-family="'Ubuntu-Medium'" font-size="15.6371">P</text>
<text transform="matrix(1 0 0 1 6.822 16.2742)" display="none" enable-background="new    " font-family="'Ubuntu-Medium'" font-size="15.6371">E</text>
<g display="none">
	<path display="inline" d="M11.2087,5.4377c1.5728,0,2.7817,0.2871,3.6255,0.8604c0.8379,0.5713,1.2578,1.4697,1.2578,2.6885   c0,0.6377-0.1133,1.1816-0.3359,1.6348c-0.2246,0.4512-0.5508,0.8262-0.9785,1.1113c-0.4316,0.2813-0.9473,0.4961-1.5664,0.6289   c-0.6133,0.1348-1.3198,0.207-2.1069,0.207h-0.9854v3.8169H8.1443V5.7043c0.4561-0.1045,0.9678-0.1748,1.5215-0.2109   C10.2283,5.4573,10.741,5.4377,11.2087,5.4377z M11.3503,7.1418c-0.5049,0-0.916,0.0156-1.2354,0.0479v3.6914h0.9541   c0.9482,0,1.6792-0.1328,2.189-0.4004c0.5098-0.2646,0.7656-0.7686,0.7656-1.5078c0-0.3555-0.0703-0.6523-0.209-0.8926   c-0.1309-0.2402-0.3203-0.4268-0.5586-0.5625c-0.2402-0.1357-0.5254-0.2324-0.8516-0.291   C12.0789,7.1721,11.7253,7.1418,11.3503,7.1418z"/>
</g>
<g enable-background="new    ">
	<path d="M8.1443,16.2742V5.4377h6.9595v1.6729H10.115v2.6733h4.4399v1.6406H10.115v3.1758h5.3638v1.6738H8.1443L8.1443,16.2742z"/>
</g>
</svg>